<mxfile host="app.diagrams.net" modified="2020-09-23T14:47:00.580Z" agent="5.0 (Windows NT 10.0; Win64; x64) AppleWebKit/537.36 (KHTML, like Gecko) Chrome/85.0.4183.102 Safari/537.36" etag="NE91HbvoS4EiBCggedFB" version="13.7.4" type="github">
  <diagram id="kgpKYQtTHZ0yAKxKKP6v" name="Page-1">
    <mxGraphModel dx="1483" dy="713" grid="1" gridSize="10" guides="1" tooltips="1" connect="1" arrows="1" fold="1" page="1" pageScale="1" pageWidth="850" pageHeight="1100" math="0" shadow="0">
      <root>
        <mxCell id="0" />
        <mxCell id="1" parent="0" />
        <mxCell id="3nuBFxr9cyL0pnOWT2aG-1" value="" style="shape=umlLifeline;perimeter=lifelinePerimeter;container=1;collapsible=0;recursiveResize=0;rounded=0;shadow=0;strokeWidth=2;dashed=1;dashPattern=1 4;" parent="1" vertex="1">
          <mxGeometry x="30" y="80" width="100" height="760" as="geometry" />
        </mxCell>
        <mxCell id="gHEqx8_dSRqDyLjup3rC-1" value="" style="rounded=0;whiteSpace=wrap;html=1;" vertex="1" parent="3nuBFxr9cyL0pnOWT2aG-1">
          <mxGeometry x="40" y="80" width="20" height="60" as="geometry" />
        </mxCell>
        <mxCell id="gHEqx8_dSRqDyLjup3rC-12" value="" style="rounded=0;whiteSpace=wrap;html=1;" vertex="1" parent="3nuBFxr9cyL0pnOWT2aG-1">
          <mxGeometry x="40" y="160" width="20" height="60" as="geometry" />
        </mxCell>
        <mxCell id="gHEqx8_dSRqDyLjup3rC-55" value="" style="rounded=0;whiteSpace=wrap;html=1;" vertex="1" parent="3nuBFxr9cyL0pnOWT2aG-1">
          <mxGeometry x="40" y="560" width="20" height="60" as="geometry" />
        </mxCell>
        <mxCell id="gHEqx8_dSRqDyLjup3rC-65" value="" style="rounded=0;whiteSpace=wrap;html=1;" vertex="1" parent="3nuBFxr9cyL0pnOWT2aG-1">
          <mxGeometry x="40" y="640" width="20" height="60" as="geometry" />
        </mxCell>
        <mxCell id="gHEqx8_dSRqDyLjup3rC-69" value="Relogin" style="text;html=1;strokeColor=none;fillColor=none;align=center;verticalAlign=middle;whiteSpace=wrap;rounded=0;dashed=1;dashPattern=1 4;" vertex="1" parent="3nuBFxr9cyL0pnOWT2aG-1">
          <mxGeometry x="80" y="640" width="40" height="20" as="geometry" />
        </mxCell>
        <mxCell id="gHEqx8_dSRqDyLjup3rC-2" value="Main form" style="rounded=0;whiteSpace=wrap;html=1;" vertex="1" parent="1">
          <mxGeometry x="140" y="80" width="80" height="40" as="geometry" />
        </mxCell>
        <mxCell id="gHEqx8_dSRqDyLjup3rC-3" value="" style="endArrow=none;dashed=1;html=1;dashPattern=1 3;strokeWidth=2;entryX=0.5;entryY=1;entryDx=0;entryDy=0;" edge="1" parent="1" source="gHEqx8_dSRqDyLjup3rC-4" target="gHEqx8_dSRqDyLjup3rC-2">
          <mxGeometry width="50" height="50" relative="1" as="geometry">
            <mxPoint x="180" y="490" as="sourcePoint" />
            <mxPoint x="300" y="260" as="targetPoint" />
          </mxGeometry>
        </mxCell>
        <mxCell id="gHEqx8_dSRqDyLjup3rC-4" value="" style="rounded=0;whiteSpace=wrap;html=1;" vertex="1" parent="1">
          <mxGeometry x="170" y="160" width="20" height="60" as="geometry" />
        </mxCell>
        <mxCell id="gHEqx8_dSRqDyLjup3rC-5" value="" style="endArrow=none;dashed=1;html=1;dashPattern=1 3;strokeWidth=2;entryX=0.5;entryY=1;entryDx=0;entryDy=0;" edge="1" parent="1" source="gHEqx8_dSRqDyLjup3rC-66" target="gHEqx8_dSRqDyLjup3rC-4">
          <mxGeometry width="50" height="50" relative="1" as="geometry">
            <mxPoint x="180" y="840" as="sourcePoint" />
            <mxPoint x="180" y="120" as="targetPoint" />
          </mxGeometry>
        </mxCell>
        <mxCell id="gHEqx8_dSRqDyLjup3rC-6" value="" style="endArrow=classic;html=1;exitX=1;exitY=0.5;exitDx=0;exitDy=0;entryX=0;entryY=0.5;entryDx=0;entryDy=0;" edge="1" parent="1" source="gHEqx8_dSRqDyLjup3rC-1" target="gHEqx8_dSRqDyLjup3rC-4">
          <mxGeometry width="50" height="50" relative="1" as="geometry">
            <mxPoint x="250" y="310" as="sourcePoint" />
            <mxPoint x="300" y="260" as="targetPoint" />
          </mxGeometry>
        </mxCell>
        <mxCell id="gHEqx8_dSRqDyLjup3rC-9" value="Opens" style="text;html=1;strokeColor=none;fillColor=none;align=center;verticalAlign=middle;whiteSpace=wrap;rounded=0;" vertex="1" parent="1">
          <mxGeometry x="100" y="160" width="40" height="20" as="geometry" />
        </mxCell>
        <mxCell id="gHEqx8_dSRqDyLjup3rC-10" value="Login form" style="rounded=0;whiteSpace=wrap;html=1;" vertex="1" parent="1">
          <mxGeometry x="240" y="80" width="60" height="40" as="geometry" />
        </mxCell>
        <mxCell id="gHEqx8_dSRqDyLjup3rC-11" value="" style="endArrow=none;dashed=1;html=1;dashPattern=1 3;strokeWidth=2;entryX=0.5;entryY=1;entryDx=0;entryDy=0;" edge="1" parent="1" source="gHEqx8_dSRqDyLjup3rC-13" target="gHEqx8_dSRqDyLjup3rC-10">
          <mxGeometry width="50" height="50" relative="1" as="geometry">
            <mxPoint x="270" y="480" as="sourcePoint" />
            <mxPoint x="330" y="180" as="targetPoint" />
          </mxGeometry>
        </mxCell>
        <mxCell id="gHEqx8_dSRqDyLjup3rC-13" value="" style="rounded=0;whiteSpace=wrap;html=1;" vertex="1" parent="1">
          <mxGeometry x="260" y="240" width="20" height="60" as="geometry" />
        </mxCell>
        <mxCell id="gHEqx8_dSRqDyLjup3rC-14" value="" style="endArrow=none;dashed=1;html=1;dashPattern=1 3;strokeWidth=2;entryX=0.5;entryY=1;entryDx=0;entryDy=0;" edge="1" parent="1" source="gHEqx8_dSRqDyLjup3rC-20" target="gHEqx8_dSRqDyLjup3rC-13">
          <mxGeometry width="50" height="50" relative="1" as="geometry">
            <mxPoint x="270" y="480" as="sourcePoint" />
            <mxPoint x="270" y="120" as="targetPoint" />
          </mxGeometry>
        </mxCell>
        <mxCell id="gHEqx8_dSRqDyLjup3rC-15" value="" style="endArrow=classic;html=1;exitX=1;exitY=0.5;exitDx=0;exitDy=0;entryX=0;entryY=0.5;entryDx=0;entryDy=0;" edge="1" parent="1" source="gHEqx8_dSRqDyLjup3rC-12" target="gHEqx8_dSRqDyLjup3rC-13">
          <mxGeometry width="50" height="50" relative="1" as="geometry">
            <mxPoint x="250" y="310" as="sourcePoint" />
            <mxPoint x="300" y="260" as="targetPoint" />
          </mxGeometry>
        </mxCell>
        <mxCell id="gHEqx8_dSRqDyLjup3rC-16" value="Enter username and password" style="text;html=1;strokeColor=none;fillColor=none;align=center;verticalAlign=middle;whiteSpace=wrap;rounded=0;" vertex="1" parent="1">
          <mxGeometry x="130" y="240" width="110" height="20" as="geometry" />
        </mxCell>
        <mxCell id="gHEqx8_dSRqDyLjup3rC-18" value="Verification and Captcha" style="rounded=0;whiteSpace=wrap;html=1;" vertex="1" parent="1">
          <mxGeometry x="320" y="80" width="70" height="40" as="geometry" />
        </mxCell>
        <mxCell id="gHEqx8_dSRqDyLjup3rC-19" value="" style="endArrow=none;dashed=1;html=1;dashPattern=1 3;strokeWidth=2;entryX=0.5;entryY=1;entryDx=0;entryDy=0;" edge="1" parent="1" source="gHEqx8_dSRqDyLjup3rC-22" target="gHEqx8_dSRqDyLjup3rC-18">
          <mxGeometry width="50" height="50" relative="1" as="geometry">
            <mxPoint x="355" y="490" as="sourcePoint" />
            <mxPoint x="380" y="150" as="targetPoint" />
          </mxGeometry>
        </mxCell>
        <mxCell id="gHEqx8_dSRqDyLjup3rC-20" value="" style="rounded=0;whiteSpace=wrap;html=1;" vertex="1" parent="1">
          <mxGeometry x="260" y="320" width="20" height="60" as="geometry" />
        </mxCell>
        <mxCell id="gHEqx8_dSRqDyLjup3rC-21" value="" style="endArrow=none;dashed=1;html=1;dashPattern=1 3;strokeWidth=2;entryX=0.5;entryY=1;entryDx=0;entryDy=0;" edge="1" parent="1" target="gHEqx8_dSRqDyLjup3rC-20">
          <mxGeometry width="50" height="50" relative="1" as="geometry">
            <mxPoint x="270" y="840" as="sourcePoint" />
            <mxPoint x="270" y="300" as="targetPoint" />
          </mxGeometry>
        </mxCell>
        <mxCell id="gHEqx8_dSRqDyLjup3rC-22" value="" style="rounded=0;whiteSpace=wrap;html=1;" vertex="1" parent="1">
          <mxGeometry x="345" y="320" width="20" height="60" as="geometry" />
        </mxCell>
        <mxCell id="gHEqx8_dSRqDyLjup3rC-24" value="" style="endArrow=none;dashed=1;html=1;dashPattern=1 3;strokeWidth=2;entryX=0.5;entryY=1;entryDx=0;entryDy=0;" edge="1" parent="1" source="gHEqx8_dSRqDyLjup3rC-35" target="gHEqx8_dSRqDyLjup3rC-22">
          <mxGeometry width="50" height="50" relative="1" as="geometry">
            <mxPoint x="355" y="700" as="sourcePoint" />
            <mxPoint x="355" y="120" as="targetPoint" />
          </mxGeometry>
        </mxCell>
        <mxCell id="gHEqx8_dSRqDyLjup3rC-25" value="" style="endArrow=classic;html=1;exitX=1;exitY=0.5;exitDx=0;exitDy=0;entryX=0;entryY=0.5;entryDx=0;entryDy=0;" edge="1" parent="1" source="gHEqx8_dSRqDyLjup3rC-20" target="gHEqx8_dSRqDyLjup3rC-22">
          <mxGeometry width="50" height="50" relative="1" as="geometry">
            <mxPoint x="280" y="380" as="sourcePoint" />
            <mxPoint x="330" y="330" as="targetPoint" />
          </mxGeometry>
        </mxCell>
        <mxCell id="gHEqx8_dSRqDyLjup3rC-26" value="Verification" style="text;html=1;strokeColor=none;fillColor=none;align=center;verticalAlign=middle;whiteSpace=wrap;rounded=0;" vertex="1" parent="1">
          <mxGeometry x="290" y="320" width="40" height="20" as="geometry" />
        </mxCell>
        <mxCell id="gHEqx8_dSRqDyLjup3rC-27" value="Welcome screen" style="rounded=0;whiteSpace=wrap;html=1;" vertex="1" parent="1">
          <mxGeometry x="415" y="80" width="65" height="40" as="geometry" />
        </mxCell>
        <mxCell id="gHEqx8_dSRqDyLjup3rC-35" value="" style="rounded=0;whiteSpace=wrap;html=1;" vertex="1" parent="1">
          <mxGeometry x="345" y="400" width="20" height="60" as="geometry" />
        </mxCell>
        <mxCell id="gHEqx8_dSRqDyLjup3rC-36" value="" style="endArrow=none;dashed=1;html=1;dashPattern=1 3;strokeWidth=2;entryX=0.5;entryY=1;entryDx=0;entryDy=0;" edge="1" parent="1" source="gHEqx8_dSRqDyLjup3rC-37" target="gHEqx8_dSRqDyLjup3rC-35">
          <mxGeometry width="50" height="50" relative="1" as="geometry">
            <mxPoint x="355" y="700" as="sourcePoint" />
            <mxPoint x="355" y="380" as="targetPoint" />
          </mxGeometry>
        </mxCell>
        <mxCell id="gHEqx8_dSRqDyLjup3rC-37" value="" style="rounded=0;whiteSpace=wrap;html=1;" vertex="1" parent="1">
          <mxGeometry x="345" y="480" width="20" height="60" as="geometry" />
        </mxCell>
        <mxCell id="gHEqx8_dSRqDyLjup3rC-38" value="" style="endArrow=none;dashed=1;html=1;dashPattern=1 3;strokeWidth=2;entryX=0.5;entryY=1;entryDx=0;entryDy=0;" edge="1" parent="1" source="gHEqx8_dSRqDyLjup3rC-39" target="gHEqx8_dSRqDyLjup3rC-37">
          <mxGeometry width="50" height="50" relative="1" as="geometry">
            <mxPoint x="355" y="700" as="sourcePoint" />
            <mxPoint x="355" y="460" as="targetPoint" />
          </mxGeometry>
        </mxCell>
        <mxCell id="gHEqx8_dSRqDyLjup3rC-39" value="" style="rounded=0;whiteSpace=wrap;html=1;" vertex="1" parent="1">
          <mxGeometry x="345" y="560" width="20" height="60" as="geometry" />
        </mxCell>
        <mxCell id="gHEqx8_dSRqDyLjup3rC-40" value="" style="endArrow=none;dashed=1;html=1;dashPattern=1 3;strokeWidth=2;entryX=0.5;entryY=1;entryDx=0;entryDy=0;" edge="1" parent="1" target="gHEqx8_dSRqDyLjup3rC-39">
          <mxGeometry width="50" height="50" relative="1" as="geometry">
            <mxPoint x="355" y="840" as="sourcePoint" />
            <mxPoint x="355" y="540" as="targetPoint" />
          </mxGeometry>
        </mxCell>
        <mxCell id="gHEqx8_dSRqDyLjup3rC-41" value="" style="endArrow=none;dashed=1;html=1;dashPattern=1 3;strokeWidth=2;entryX=0.5;entryY=1;entryDx=0;entryDy=0;" edge="1" parent="1" source="gHEqx8_dSRqDyLjup3rC-42" target="gHEqx8_dSRqDyLjup3rC-27">
          <mxGeometry width="50" height="50" relative="1" as="geometry">
            <mxPoint x="448" y="690" as="sourcePoint" />
            <mxPoint x="480" y="210" as="targetPoint" />
          </mxGeometry>
        </mxCell>
        <mxCell id="gHEqx8_dSRqDyLjup3rC-42" value="" style="rounded=0;whiteSpace=wrap;html=1;" vertex="1" parent="1">
          <mxGeometry x="437.5" y="480" width="20" height="60" as="geometry" />
        </mxCell>
        <mxCell id="gHEqx8_dSRqDyLjup3rC-43" value="" style="endArrow=none;dashed=1;html=1;dashPattern=1 3;strokeWidth=2;entryX=0.5;entryY=1;entryDx=0;entryDy=0;" edge="1" parent="1" target="gHEqx8_dSRqDyLjup3rC-42">
          <mxGeometry width="50" height="50" relative="1" as="geometry">
            <mxPoint x="448" y="840" as="sourcePoint" />
            <mxPoint x="447.5" y="120" as="targetPoint" />
          </mxGeometry>
        </mxCell>
        <mxCell id="gHEqx8_dSRqDyLjup3rC-44" value="" style="endArrow=classic;html=1;entryX=0;entryY=0.5;entryDx=0;entryDy=0;exitX=1;exitY=0.5;exitDx=0;exitDy=0;" edge="1" parent="1" source="gHEqx8_dSRqDyLjup3rC-37" target="gHEqx8_dSRqDyLjup3rC-42">
          <mxGeometry width="50" height="50" relative="1" as="geometry">
            <mxPoint x="380" y="550" as="sourcePoint" />
            <mxPoint x="430" y="500" as="targetPoint" />
          </mxGeometry>
        </mxCell>
        <mxCell id="gHEqx8_dSRqDyLjup3rC-45" value="Valid&lt;span style=&quot;color: rgba(0 , 0 , 0 , 0) ; font-family: monospace ; font-size: 0px&quot;&gt;%3CmxGraphModel%3E%3Croot%3E%3CmxCell%20id%3D%220%22%2F%3E%3CmxCell%20id%3D%221%22%20parent%3D%220%22%2F%3E%3CmxCell%20id%3D%222%22%20value%3D%22%22%20style%3D%22rounded%3D0%3BwhiteSpace%3Dwrap%3Bhtml%3D1%3B%22%20vertex%3D%221%22%20parent%3D%221%22%3E%3CmxGeometry%20x%3D%22170%22%20y%3D%22160%22%20width%3D%2220%22%20height%3D%2260%22%20as%3D%22geometry%22%2F%3E%3C%2FmxCell%3E%3C%2Froot%3E%3C%2FmxGraphModel%3E&lt;/span&gt;" style="text;html=1;strokeColor=none;fillColor=none;align=center;verticalAlign=middle;whiteSpace=wrap;rounded=0;" vertex="1" parent="1">
          <mxGeometry x="385" y="480" width="40" height="20" as="geometry" />
        </mxCell>
        <mxCell id="gHEqx8_dSRqDyLjup3rC-46" value="Error messgae" style="rounded=0;whiteSpace=wrap;html=1;" vertex="1" parent="1">
          <mxGeometry x="510" y="80" width="70" height="40" as="geometry" />
        </mxCell>
        <mxCell id="gHEqx8_dSRqDyLjup3rC-47" value="" style="endArrow=none;dashed=1;html=1;dashPattern=1 3;strokeWidth=2;entryX=0.5;entryY=1;entryDx=0;entryDy=0;" edge="1" parent="1" source="gHEqx8_dSRqDyLjup3rC-48" target="gHEqx8_dSRqDyLjup3rC-46">
          <mxGeometry width="50" height="50" relative="1" as="geometry">
            <mxPoint x="545" y="690" as="sourcePoint" />
            <mxPoint x="580" y="230" as="targetPoint" />
          </mxGeometry>
        </mxCell>
        <mxCell id="gHEqx8_dSRqDyLjup3rC-48" value="" style="rounded=0;whiteSpace=wrap;html=1;" vertex="1" parent="1">
          <mxGeometry x="535" y="560" width="20" height="60" as="geometry" />
        </mxCell>
        <mxCell id="gHEqx8_dSRqDyLjup3rC-49" value="" style="endArrow=none;dashed=1;html=1;dashPattern=1 3;strokeWidth=2;entryX=0.5;entryY=1;entryDx=0;entryDy=0;" edge="1" parent="1" source="gHEqx8_dSRqDyLjup3rC-52" target="gHEqx8_dSRqDyLjup3rC-48">
          <mxGeometry width="50" height="50" relative="1" as="geometry">
            <mxPoint x="545" y="770" as="sourcePoint" />
            <mxPoint x="545" y="120" as="targetPoint" />
          </mxGeometry>
        </mxCell>
        <mxCell id="gHEqx8_dSRqDyLjup3rC-50" value="" style="endArrow=classic;html=1;exitX=0;exitY=0.5;exitDx=0;exitDy=0;entryX=1;entryY=0.5;entryDx=0;entryDy=0;dashed=1;" edge="1" parent="1" source="gHEqx8_dSRqDyLjup3rC-48" target="gHEqx8_dSRqDyLjup3rC-39">
          <mxGeometry width="50" height="50" relative="1" as="geometry">
            <mxPoint x="250" y="490" as="sourcePoint" />
            <mxPoint x="300" y="440" as="targetPoint" />
          </mxGeometry>
        </mxCell>
        <mxCell id="gHEqx8_dSRqDyLjup3rC-51" value="Invalid" style="text;html=1;strokeColor=none;fillColor=none;align=center;verticalAlign=middle;whiteSpace=wrap;rounded=0;" vertex="1" parent="1">
          <mxGeometry x="470" y="560" width="40" height="20" as="geometry" />
        </mxCell>
        <mxCell id="gHEqx8_dSRqDyLjup3rC-52" value="" style="rounded=0;whiteSpace=wrap;html=1;" vertex="1" parent="1">
          <mxGeometry x="535" y="640" width="20" height="60" as="geometry" />
        </mxCell>
        <mxCell id="gHEqx8_dSRqDyLjup3rC-54" value="" style="endArrow=none;dashed=1;html=1;dashPattern=1 3;strokeWidth=2;entryX=0.5;entryY=1;entryDx=0;entryDy=0;" edge="1" parent="1" target="gHEqx8_dSRqDyLjup3rC-52">
          <mxGeometry width="50" height="50" relative="1" as="geometry">
            <mxPoint x="545" y="840" as="sourcePoint" />
            <mxPoint x="545" y="620" as="targetPoint" />
          </mxGeometry>
        </mxCell>
        <mxCell id="gHEqx8_dSRqDyLjup3rC-56" value="" style="endArrow=classic;html=1;dashed=1;exitX=0;exitY=0.5;exitDx=0;exitDy=0;" edge="1" parent="1" source="gHEqx8_dSRqDyLjup3rC-52">
          <mxGeometry width="50" height="50" relative="1" as="geometry">
            <mxPoint x="250" y="590" as="sourcePoint" />
            <mxPoint x="90" y="670" as="targetPoint" />
          </mxGeometry>
        </mxCell>
        <mxCell id="gHEqx8_dSRqDyLjup3rC-57" value="Error message displayed to user" style="text;html=1;strokeColor=none;fillColor=none;align=center;verticalAlign=middle;whiteSpace=wrap;rounded=0;" vertex="1" parent="1">
          <mxGeometry x="120" y="640" width="180" height="20" as="geometry" />
        </mxCell>
        <mxCell id="gHEqx8_dSRqDyLjup3rC-58" value="Database" style="rounded=0;whiteSpace=wrap;html=1;" vertex="1" parent="1">
          <mxGeometry x="600" y="80" width="60" height="40" as="geometry" />
        </mxCell>
        <mxCell id="gHEqx8_dSRqDyLjup3rC-59" value="" style="endArrow=none;dashed=1;html=1;dashPattern=1 3;strokeWidth=2;entryX=0.5;entryY=1;entryDx=0;entryDy=0;" edge="1" parent="1" source="gHEqx8_dSRqDyLjup3rC-60" target="gHEqx8_dSRqDyLjup3rC-58">
          <mxGeometry width="50" height="50" relative="1" as="geometry">
            <mxPoint x="630" y="770" as="sourcePoint" />
            <mxPoint x="650" y="170" as="targetPoint" />
          </mxGeometry>
        </mxCell>
        <mxCell id="gHEqx8_dSRqDyLjup3rC-60" value="" style="rounded=0;whiteSpace=wrap;html=1;" vertex="1" parent="1">
          <mxGeometry x="620" y="400" width="20" height="60" as="geometry" />
        </mxCell>
        <mxCell id="gHEqx8_dSRqDyLjup3rC-61" value="" style="endArrow=none;dashed=1;html=1;dashPattern=1 3;strokeWidth=2;entryX=0.5;entryY=1;entryDx=0;entryDy=0;" edge="1" parent="1" target="gHEqx8_dSRqDyLjup3rC-60">
          <mxGeometry width="50" height="50" relative="1" as="geometry">
            <mxPoint x="630" y="840" as="sourcePoint" />
            <mxPoint x="630" y="120" as="targetPoint" />
          </mxGeometry>
        </mxCell>
        <mxCell id="gHEqx8_dSRqDyLjup3rC-62" value="" style="endArrow=classic;html=1;dashed=1;entryX=1;entryY=0.5;entryDx=0;entryDy=0;exitX=0;exitY=0.5;exitDx=0;exitDy=0;" edge="1" parent="1" source="gHEqx8_dSRqDyLjup3rC-60" target="gHEqx8_dSRqDyLjup3rC-35">
          <mxGeometry width="50" height="50" relative="1" as="geometry">
            <mxPoint x="550" y="450" as="sourcePoint" />
            <mxPoint x="600" y="400" as="targetPoint" />
          </mxGeometry>
        </mxCell>
        <mxCell id="gHEqx8_dSRqDyLjup3rC-63" value="Retrieve from database" style="text;html=1;strokeColor=none;fillColor=none;align=center;verticalAlign=middle;whiteSpace=wrap;rounded=0;" vertex="1" parent="1">
          <mxGeometry x="435" y="400" width="110" height="20" as="geometry" />
        </mxCell>
        <mxCell id="gHEqx8_dSRqDyLjup3rC-66" value="" style="rounded=0;whiteSpace=wrap;html=1;" vertex="1" parent="1">
          <mxGeometry x="170" y="720" width="20" height="60" as="geometry" />
        </mxCell>
        <mxCell id="gHEqx8_dSRqDyLjup3rC-67" value="" style="endArrow=none;dashed=1;html=1;dashPattern=1 3;strokeWidth=2;entryX=0.5;entryY=1;entryDx=0;entryDy=0;" edge="1" parent="1" target="gHEqx8_dSRqDyLjup3rC-66">
          <mxGeometry width="50" height="50" relative="1" as="geometry">
            <mxPoint x="180" y="840" as="sourcePoint" />
            <mxPoint x="180" y="220" as="targetPoint" />
          </mxGeometry>
        </mxCell>
        <mxCell id="gHEqx8_dSRqDyLjup3rC-68" value="" style="endArrow=classic;html=1;exitX=1;exitY=0.5;exitDx=0;exitDy=0;entryX=0;entryY=0.5;entryDx=0;entryDy=0;" edge="1" parent="1" source="gHEqx8_dSRqDyLjup3rC-65" target="gHEqx8_dSRqDyLjup3rC-66">
          <mxGeometry width="50" height="50" relative="1" as="geometry">
            <mxPoint x="90" y="780" as="sourcePoint" />
            <mxPoint x="140" y="730" as="targetPoint" />
          </mxGeometry>
        </mxCell>
        <mxCell id="gHEqx8_dSRqDyLjup3rC-71" value="&lt;font size=&quot;1&quot;&gt;&lt;b&gt;&lt;u style=&quot;font-size: 15px&quot;&gt;Sequence Diagram for logging into ERP&lt;/u&gt;&lt;/b&gt;&lt;/font&gt;" style="text;html=1;strokeColor=none;fillColor=none;align=center;verticalAlign=middle;whiteSpace=wrap;rounded=0;dashed=1;dashPattern=1 4;" vertex="1" parent="1">
          <mxGeometry x="130" y="10" width="500" height="20" as="geometry" />
        </mxCell>
        <mxCell id="gHEqx8_dSRqDyLjup3rC-72" value="User" style="shape=umlActor;verticalLabelPosition=bottom;verticalAlign=top;html=1;outlineConnect=0;strokeWidth=2;" vertex="1" parent="1">
          <mxGeometry x="65" y="60" width="30" height="60" as="geometry" />
        </mxCell>
      </root>
    </mxGraphModel>
  </diagram>
</mxfile>
